<svg width="24" height="24" viewBox="0 0 24 24" fill="none" xmlns="http://www.w3.org/2000/svg">
<path d="M18.9999 17.8306H19.4999M18.9999 17.8306C17 13.5 17 11 16.9999 9.45801C16.9999 7.91602 16.227 6.87231 14.9999 5.95801C14.0718 5.26644 13.3102 5.07269 11.9999 5.06621C10.6704 5.05964 10.0548 5.13656 8.99994 5.95801C7.99889 6.73755 6.99994 7.94102 6.99994 9.45801C6.99994 10.975 6.99994 13.5 4.99994 17.8306M18.9999 17.8306H4.99994M4.5 17.8306H4.99994M10.8049 20.958C10.8049 20.958 11.0643 21.5422 11.9733 21.5422C12.8822 21.5422 13.2315 20.958 13.2315 20.958M11.9999 4.9545C11.9999 4.9545 10 2.5 12 2.5C14 2.5 11.9999 4.9545 11.9999 4.9545Z" stroke="#0F0F0F" stroke-opacity="0.6" stroke-width="2.2" stroke-linecap="round" stroke-linejoin="round"/>
</svg>
