<svg width="24" height="24" viewBox="0 0 24 24" fill="none" xmlns="http://www.w3.org/2000/svg">
<path d="M10.9901 16.8811C9.0061 16.9132 8.62158 18.7954 8.52074 18.8488C8.41989 18.9023 6.93507 17.8871 5.27871 18.8488C3.62232 19.8106 3.69779 21.5497 3.69779 21.5497H18.3981C18.3981 21.5497 18.3867 19.8126 16.8505 18.8248C15.3142 17.8371 13.6764 18.9184 13.5116 18.8719C13.3468 18.8253 13.1261 17.0929 10.9901 16.8811ZM10.9901 16.8811C11.0547 14.6962 11.1555 11.8008 11.1555 11.8008M11.1747 8.64171C11.1747 8.64171 15.4432 9.30782 17.7066 7.62778C20.1653 5.80272 20.6977 2.45676 20.3428 2.45676C19.9879 2.45676 15.9639 2.10535 14.1832 3.29324C12.4025 4.48113 11.1747 6.03085 11.1747 8.64171ZM11.1747 8.64171V10.6337M11.1747 10.6337C11.1747 10.6337 10.2158 7.90919 7.77008 7.32361C6.33216 6.97932 4.57621 6.89269 4.0946 6.89269C3.71918 6.89269 4.42284 9.88298 6.02106 10.9484C7.75481 12.1042 11.1555 11.8008 11.1555 11.8008M11.1747 10.6337L11.1555 11.8008" stroke="#0F0F0F" stroke-opacity="0.6" stroke-width="2" stroke-linecap="round" stroke-linejoin="round"/>
</svg>
