<svg width="24" height="24" viewBox="0 0 24 24" fill="none" xmlns="http://www.w3.org/2000/svg">
<path d="M3.66667 14.3327V21.9994H8.11111V8.66604M8.11111 8.66604H14.5M8.11111 8.66604L5.33333 10.3327L3.11111 8.66604H2V15.8883M18.0008 15.7479C17.6942 15.6611 17.3809 15.605 17.0996 15.5986M17.0996 15.5986C16.5402 15.5858 16.1382 15.7541 16.1382 16.2823C16.1382 17.2442 17.9244 16.6182 17.9244 17.7022C17.8813 18.2366 17.5327 18.3882 17.0236 18.3888M17.0996 15.5986V14.9999M17.0236 18.3888C16.7275 18.3892 16.377 18.3385 16.0008 18.2823M17.0236 18.3888V18.9693M22 16.9994C22 19.7608 19.7614 21.9994 17 21.9994C14.2386 21.9994 12 19.7608 12 16.9994C12 14.2379 14.2386 11.9994 17 11.9994C19.7614 11.9994 22 14.2379 22 16.9994ZM7.17821 4.77018C7.17821 5.69066 6.43202 6.43685 5.51154 6.43685C4.59107 6.43685 3.84488 5.69066 3.84488 4.77018C3.84488 3.84971 4.59107 3.10352 5.51154 3.10352C6.43202 3.10352 7.17821 3.84971 7.17821 4.77018Z" stroke="#0F0F0F" stroke-opacity="0.6" stroke-width="2" stroke-linecap="round" stroke-linejoin="round"/>
</svg>
