<svg width="24" height="24" viewBox="0 0 24 24" fill="none" xmlns="http://www.w3.org/2000/svg">
<path d="M14.1455 14.1416C14.2961 13.9911 14.4369 13.8345 14.5679 13.6726M14.1455 14.1416C14.1455 14.1416 13.8384 14.433 13.6765 14.564M14.1455 14.1416L19.8622 18.9283C20.3452 19.4114 19.4015 20.3636 18.9361 19.8544L14.1455 14.1416ZM14.1455 14.1416L14.5679 13.6726M14.1455 14.1416L13.6765 14.564M14.5679 13.6726C16.4558 11.3395 16.315 7.90953 14.1455 5.74003C11.8255 3.41999 8.06398 3.41999 5.74394 5.74003C3.4239 8.06007 3.4239 11.8216 5.74394 14.1416C7.91344 16.3111 11.3434 16.4519 13.6765 14.564" stroke="#0F0F0F" stroke-opacity="0.6" stroke-width="2.2" stroke-linecap="round" stroke-linejoin="round"/>
</svg>
