<svg width="36" height="36" viewBox="0 0 36 36" fill="none" xmlns="http://www.w3.org/2000/svg">
<rect x="1.4" y="1.4" width="33.2" height="33.2" rx="3.6" fill="#00205C" stroke="white" stroke-width="1.2"/>
<path fill-rule="evenodd" clip-rule="evenodd" d="M22.6804 15.1318C22.7487 15.1773 22.9081 15.1773 23.0676 15.1773H25.5046C24.2747 14.0849 23.5231 11.3765 23.5231 9.76054C23.5231 8.09908 24.2747 5.41345 25.5046 4.34375H23.0676C22.9309 4.34375 22.7487 4.34375 22.6804 4.38927C22.6804 4.38927 20.4939 6.46039 20.4939 9.76054C20.4939 13.0607 22.6804 15.1318 22.6804 15.1318ZM22.931 27.1261C22.931 27.9455 22.5666 28.4462 21.8378 28.742L22.9765 30.8814H21.4961L20.4712 28.9014H19.5374V30.8814H18.2164V25.3736H20.9723C21.9972 25.3736 22.8627 25.8971 22.931 26.9895V27.1261ZM19.4463 27.9682H20.7445C21.2911 27.9682 21.5872 27.6951 21.5417 27.1489C21.5417 26.5799 21.2456 26.3523 20.7445 26.3523H19.4463V27.9682ZM9.69821 25.3963H11.1786L9.3338 30.2896C9.19714 30.6538 8.7644 30.9497 8.37722 30.9497H7.58006L8.17223 29.402L5.89465 25.4191H6.64625C7.05622 25.4191 7.53451 25.715 7.73949 26.0336L8.7644 27.8088L9.69821 25.3963ZM15.1417 28.4917H13.2741L14.0713 26.4205C14.1624 26.1929 14.299 26.1929 14.3674 26.4205L15.1417 28.4917ZM15.4834 29.4476L16.0528 30.9269H17.4421L15.5972 26.0791C15.4606 25.715 15.0051 25.4191 14.6407 25.4191H13.0236L10.951 30.9269H11.6343C12.0214 30.9269 12.4542 30.6311 12.5908 30.2669L12.8869 29.4703H15.4834V29.4476ZM26.7346 26.4433C26.6662 26.2157 26.5296 26.2157 26.4385 26.4433L25.6641 28.5144H27.5317L26.7346 26.4433ZM27.8961 29.4475H25.3225L24.7075 30.9041H23.3182L25.163 26.0563C25.2997 25.6922 25.7324 25.3963 26.1196 25.3963H27.7139L29.8321 30.9041H29.1488C28.7616 30.9041 28.3289 30.6083 28.1922 30.2441L27.8961 29.4475ZM17.8063 15.1773C17.6469 15.1773 17.4875 15.1773 17.4192 15.1318C17.4192 15.1318 15.2782 13.0152 15.2327 9.76054C15.2327 6.50591 17.4192 4.38927 17.4192 4.38927C17.4875 4.34375 17.6697 4.34375 17.8063 4.34375H20.2206C19.0362 5.41345 18.2391 8.09908 18.2391 9.76054C18.2391 11.3765 18.9907 14.0849 20.2206 15.1773H17.8063ZM12.2035 15.1318C12.2719 15.1773 12.4313 15.1773 12.5679 15.1773H15.005C13.7751 14.0849 13.0235 11.3765 13.0235 9.76054C13.0235 8.09908 13.7751 5.41345 15.005 4.34375H12.5679C12.4313 4.34375 12.2491 4.34375 12.2035 4.38927C12.2035 4.38927 10.0171 6.46039 10.0171 9.76054C10.0171 13.0607 12.2035 15.1318 12.2035 15.1318ZM29.1351 19.0561C29.2056 19.1997 29.2721 19.335 29.3308 19.4561C29.5814 19.934 30.0369 21.1631 29.4447 22.3238C29.0348 23.0293 28.4881 23.6666 26.6433 23.6211H9.56145C7.71661 23.6211 7.19277 23.0066 6.76003 22.3238C5.98565 21.1403 6.48672 19.9568 6.71448 19.4561C6.80433 19.2653 6.91218 19.044 7.02507 18.8125C7.36999 18.1049 7.76185 17.3011 7.83049 16.9753C7.83049 16.9753 8.21768 15.9739 7.16999 15.8146C6.71448 15.769 6.46394 15.4504 6.41839 15.018V14.5173C6.41839 14.449 6.48672 14.3807 6.55505 14.3807H8.33156C8.37711 14.3807 9.56145 14.5173 9.56145 15.9739C9.56474 16.153 9.56755 16.3209 9.57019 16.4784C9.60411 18.5026 9.60913 18.8026 10.222 18.8871C10.2903 18.8871 10.3586 18.8643 10.3586 18.7961V18.7278C10.3586 17.385 11.4291 16.338 12.7501 16.338C13.4106 16.338 14.0027 16.6339 14.4355 17.0663C14.4355 17.0891 14.481 17.1346 14.5266 17.1346C14.5494 17.1346 14.6177 17.1118 14.6177 17.0663C15.0049 16.6339 15.6426 16.338 16.3031 16.338C16.9636 16.338 17.5558 16.6339 17.9885 17.0663C17.9885 17.0891 18.034 17.1346 18.0796 17.1346C18.1024 17.1346 18.1707 17.1118 18.1707 17.0663C18.5579 16.6339 19.1956 16.338 19.8561 16.338C20.5166 16.338 21.1088 16.6339 21.5415 17.0663C21.5415 17.0891 21.5871 17.1346 21.6326 17.1346C21.6554 17.1346 21.7237 17.1118 21.7237 17.0663C22.1109 16.6339 22.7486 16.338 23.4091 16.338C24.7529 16.338 25.8006 17.4077 25.8006 18.7278V18.7961C25.8006 18.8188 25.8234 18.8871 25.8917 18.8871C26.5051 18.7603 26.5096 18.496 26.5436 16.4718C26.5462 16.3165 26.549 16.1507 26.5522 15.9739C26.5522 14.5173 27.7365 14.3807 27.7821 14.3807H29.4903C29.5586 14.3807 29.6269 14.449 29.6269 14.5173V15.018C29.6042 15.4276 29.3081 15.7463 28.8753 15.8146C27.8276 15.9966 28.2148 16.9753 28.2148 16.9753C28.2912 17.338 28.7682 18.3091 29.1351 19.0561ZM11.1558 18.705C11.1558 19.5016 11.7707 20.1161 12.5679 20.1161C13.3195 20.1161 14.0027 19.4788 13.98 18.705C13.98 17.9084 13.365 17.2939 12.5679 17.2939C11.7707 17.2939 11.1558 17.9084 11.1558 18.705ZM14.7543 18.705C14.7543 19.5016 15.3693 20.1161 16.1664 20.1161C16.9636 20.1161 17.5785 19.4788 17.5785 18.705C17.5785 17.9084 16.9636 17.2939 16.1664 17.2939C15.3693 17.2939 14.7543 17.9084 14.7543 18.705ZM18.3529 18.705C18.3529 19.5016 18.9679 20.1161 19.765 20.1161C20.5622 20.1161 21.1771 19.4788 21.1771 18.705C21.1771 17.9084 20.5622 17.2939 19.765 17.2939C18.9679 17.2939 18.3529 17.9084 18.3529 18.705ZM21.9743 18.705C21.9743 19.5016 22.5892 20.1161 23.3864 20.1161C24.1835 20.1161 24.8212 19.4788 24.7985 18.705C24.7985 17.9084 24.1835 17.2939 23.3864 17.2939C22.5892 17.2939 21.9743 17.9084 21.9743 18.705Z" fill="white"/>
</svg>
